<svg xmlns="http://www.w3.org/2000/svg" viewBox="0 0 20 20"><defs><style>.cls-1{fill:#fff;}</style></defs><g id="Capa_2" data-name="Capa 2"><g id="_019_transport" data-name=" 019 transport"><path class="cls-1" d="M13,20H1a1,1,0,0,1-1-1V4A4,4,0,0,1,4,0h6a4,4,0,0,1,4,4v9.57a1,1,0,0,1-2,0V4a2,2,0,0,0-2-2H4A2,2,0,0,0,2,4V18H12v-.43a1,1,0,0,1,2,0V19A1,1,0,0,1,13,20Z"/><path class="cls-1" d="M7,17a3,3,0,0,1-3-3c0-2.35,2.06-4.47,2.29-4.71a1,1,0,0,1,1.4142-.0058L7.71,9.29C7.94,9.53,10,11.65,10,14A3,3,0,0,1,7,17Zm0-5.44A4.63994,4.63994,0,0,0,6,14a1,1,0,0,0,2,0A4.64,4.64,0,0,0,7,11.56Z"/><path class="cls-1" d="M15,15H13a1,1,0,0,1,0-2h2a1,1,0,0,0,1-1V5a3,3,0,0,1,3-3,1,1,0,0,1,0,2,1,1,0,0,0-1,1v7A3,3,0,0,1,15,15Z"/><rect class="cls-1" x="16" y="6" width="4" height="4" rx="1"/><path class="cls-1" d="M9,7H5A1,1,0,0,1,5,5H9A1,1,0,0,1,9,7Z"/></g></g></svg>